<?xml version="1.0" standalone="no"?>
<!DOCTYPE svg PUBLIC "-//W3C//DTD SVG 20010904//EN"
 "http://www.w3.org/TR/2001/REC-SVG-20010904/DTD/svg10.dtd">
<svg version="1.0" xmlns="http://www.w3.org/2000/svg"
 width="700.000000pt" height="700.000000pt" viewBox="0 0 700.000000 700.000000"
 preserveAspectRatio="xMidYMid meet">
<metadata>
Created by potrace 1.14, written by Peter Selinger 2001-2017
</metadata>
<g transform="translate(0.000000,700.000000) scale(0.100000,-0.100000)"
fill="#000000" stroke="none">
<path d="M3338 6995 c-1 -1 -30 -6 -63 -9 -134 -13 -373 -72 -470 -116 -11 -5
-51 -22 -90 -39 -238 -101 -503 -297 -680 -502 -22 -25 -53 -61 -70 -80 -85
-98 -225 -333 -290 -489 -55 -130 -112 -313 -130 -415 -2 -16 -7 -41 -10 -55
-3 -14 -8 -45 -11 -70 -3 -25 -7 -56 -10 -70 -2 -14 -7 -104 -11 -200 l-6
-176 54 -46 c30 -25 151 -125 269 -223 118 -97 226 -187 240 -200 21 -18 29
-20 41 -11 18 13 96 76 113 91 9 9 47 40 141 116 11 10 41 34 66 55 25 22 65
55 90 76 24 20 54 44 66 55 12 10 50 41 84 68 34 28 75 62 93 77 38 34 44 34
76 5 24 -21 115 -96 154 -127 10 -8 26 -22 35 -30 9 -8 39 -33 66 -55 58 -47
46 -37 248 -204 87 -72 162 -131 168 -131 5 0 92 69 192 153 101 83 203 168
227 187 24 19 60 49 80 65 101 88 202 166 209 163 10 -4 6 0 399 -325 168
-139 308 -249 311 -245 3 5 44 39 91 77 47 38 177 146 289 239 l203 169 -5
176 c-5 148 -17 267 -41 392 -55 298 -212 639 -414 898 -267 343 -683 614
-1082 706 -3 0 -23 5 -45 10 -22 5 -42 9 -45 10 -3 1 -30 5 -60 10 -30 4 -66
10 -80 12 -31 5 -387 13 -392 8z"/>
<path d="M1339 4444 c-24 -20 -64 -53 -89 -74 -88 -74 -417 -346 -493 -408
l-77 -64 2 -1801 3 -1802 32 -67 c40 -84 107 -151 193 -192 l65 -31 2525 0
2525 0 65 31 c114 54 194 152 220 270 9 38 14 1877 10 3486 l0 107 -107 87
c-60 48 -112 92 -118 98 -5 6 -32 29 -60 51 -27 22 -55 44 -61 50 -7 5 -31 26
-55 45 -24 19 -101 83 -172 143 -111 92 -132 106 -146 95 -40 -32 -116 -94
-121 -99 -4 -4 -347 -288 -518 -429 -24 -19 -47 -35 -52 -35 -5 0 -158 124
-341 275 -183 151 -340 280 -349 287 -17 12 -11 17 -425 -325 -11 -10 -72 -60
-135 -112 -63 -52 -124 -103 -135 -113 -10 -9 -22 -16 -26 -15 -4 2 -160 129
-345 283 -186 154 -343 283 -349 287 -7 4 -76 -46 -171 -125 -88 -73 -233
-193 -323 -267 -90 -74 -175 -145 -190 -157 -14 -13 -28 -23 -31 -23 -4 0
-125 99 -200 163 -14 12 -61 52 -105 88 -44 36 -145 119 -225 185 -80 65 -152
125 -161 132 -14 11 -23 7 -60 -24z m2101 -1116 c0 -11 -20 -135 -36 -218 -2
-14 -7 -41 -10 -60 -3 -19 -19 -108 -35 -198 -16 -89 -32 -179 -35 -200 -3
-20 -8 -40 -11 -44 -2 -5 8 -8 24 -8 15 -1 153 -2 306 -3 239 -2 278 0 282 13
2 8 9 44 15 80 5 36 12 76 15 90 8 38 34 185 51 285 9 50 18 101 20 115 3 14
11 54 17 90 l12 65 158 3 159 3 -6 -28 c-3 -16 -8 -41 -11 -58 -3 -16 -7 -43
-10 -60 -6 -30 -89 -501 -100 -563 -6 -37 -25 -34 198 -33 l127 0 0 -149 0
-150 -195 0 c-107 0 -195 -3 -195 -7 0 -5 -4 -33 -10 -63 -33 -192 -82 -468
-95 -540 -8 -47 -15 -92 -15 -101 0 -14 28 -16 253 -15 l252 1 3 -151 3 -151
-273 -1 c-150 0 -278 -1 -284 -1 -7 -1 -19 -44 -29 -99 -10 -53 -19 -106 -21
-117 -3 -11 -16 -85 -29 -165 -14 -80 -27 -152 -30 -160 -2 -8 -7 -33 -10 -55
-6 -43 -11 -73 -20 -117 l-6 -26 -150 0 c-116 0 -152 3 -156 14 -2 7 13 113
36 236 22 123 43 241 47 263 3 22 14 82 24 133 9 51 14 94 11 95 -13 6 -588 0
-598 -6 -6 -4 -14 -26 -17 -50 -10 -65 -15 -92 -36 -207 -11 -58 -22 -121 -25
-140 -3 -19 -10 -60 -16 -90 -6 -30 -13 -68 -16 -85 -2 -16 -10 -59 -17 -95
l-11 -65 -158 -2 -157 -2 6 32 c3 18 7 41 9 52 1 11 5 36 9 55 17 94 87 489
91 515 3 17 8 42 11 57 7 33 23 30 -178 30 l-148 1 0 147 c0 110 3 149 13 152
6 2 92 3 189 3 153 -1 178 1 182 14 4 16 12 54 20 101 2 14 14 79 26 145 12
66 23 129 25 140 4 30 22 135 45 264 6 30 10 56 10 58 0 2 -115 3 -255 3
l-255 0 0 150 0 149 243 0 c133 0 261 0 284 0 l42 1 7 48 c5 26 9 49 9 52 1 3
5 25 9 50 5 25 10 54 12 65 2 11 20 112 39 225 20 113 41 226 46 253 l11 47
154 0 c117 0 154 -3 154 -12z"/>
<path d="M3254 2262 c-3 -20 -12 -68 -20 -107 -7 -38 -16 -87 -20 -109 -3 -21
-7 -48 -10 -60 -2 -11 -13 -73 -24 -136 -12 -63 -28 -147 -36 -187 -7 -40 -14
-76 -14 -81 0 -4 137 -8 304 -8 l305 0 5 30 c3 17 8 42 11 56 3 14 8 39 10 55
3 17 10 55 15 85 6 30 13 69 15 85 3 17 15 77 26 135 11 58 22 121 25 140 3
19 10 53 15 75 4 22 9 46 9 53 0 9 -66 12 -305 12 l-304 -1 -7 -37z"/>
</g>
</svg>
